<svg viewBox="0 0 1200 400" xmlns="http://www.w3.org/2000/svg">
  <!-- Background -->
  <rect width="1200" height="400" fill="none"/>

  <!-- Decorative circle and star elements -->
  <g id="circle-and-stars">
    <!-- Outer circle arc (top) -->
    <path d="M 350 120 A 120 120 0 0 1 550 120" stroke="#C9A84C" stroke-width="8" fill="none" stroke-linecap="round"/>

    <!-- Inner circle arc (top) -->
    <path d="M 370 140 A 100 100 0 0 1 530 140" stroke="#D4B896" stroke-width="5" fill="none" stroke-linecap="round"/>

    <!-- Bottom outer arc -->
    <path d="M 350 280 A 120 120 0 0 0 550 280" stroke="#C9A84C" stroke-width="8" fill="none" stroke-linecap="round"/>

    <!-- Bottom inner arc -->
    <path d="M 370 260 A 100 100 0 0 0 530 260" stroke="#D4B896" stroke-width="5" fill="none" stroke-linecap="round"/>

    <!-- Top right star burst -->
    <g id="star-top-right">
      <line x1="575" y1="100" x2="595" y2="80" stroke="#C9A84C" stroke-width="4" stroke-linecap="round"/>
      <line x1="575" y1="100" x2="600" y2="100" stroke="#C9A84C" stroke-width="4" stroke-linecap="round"/>
      <line x1="575" y1="100" x2="595" y2="120" stroke="#C9A84C" stroke-width="4" stroke-linecap="round"/>
      <circle cx="575" cy="100" r="6" fill="#C9A84C"/>
    </g>

    <!-- Bottom left star burst -->
    <g id="star-bottom-left">
      <line x1="325" y1="260" x2="305" y2="280" stroke="#C9A84C" stroke-width="4" stroke-linecap="round"/>
      <line x1="325" y1="260" x2="300" y2="260" stroke="#C9A84C" stroke-width="4" stroke-linecap="round"/>
      <line x1="325" y1="260" x2="305" y2="240" stroke="#C9A84C" stroke-width="4" stroke-linecap="round"/>
      <circle cx="325" cy="260" r="6" fill="#C9A84C"/>
    </g>
  </g>

  <!-- Large stylized S -->
  <g id="large-s">
    <!-- Shadow effect -->
    <path d="M 480 160 Q 440 140 440 180 Q 440 220 480 240 Q 520 260 520 300 Q 520 340 480 360 Q 440 375 400 360"
          stroke="#8B6F47" stroke-width="45" fill="none" stroke-linecap="round" stroke-linejoin="round" opacity="0.3" filter="url(#shadow)"/>

    <!-- Main S with gradient -->
    <defs>
      <linearGradient id="goldGrad" x1="0%" y1="0%" x2="100%" y2="100%">
        <stop offset="0%" style="stop-color:#E8C547;stop-opacity:1" />
        <stop offset="50%" style="stop-color:#D4AF37;stop-opacity:1" />
        <stop offset="100%" style="stop-color:#AA8C2A;stop-opacity:1" />
      </linearGradient>
      <filter id="shadow">
        <feDropShadow dx="3" dy="3" stdDeviation="4" flood-opacity="0.3"/>
      </filter>
    </defs>

    <path d="M 480 160 Q 440 140 440 180 Q 440 220 480 240 Q 520 260 520 300 Q 520 340 480 360 Q 440 375 400 360"
          stroke="url(#goldGrad)" stroke-width="40" fill="none" stroke-linecap="round" stroke-linejoin="round" filter="url(#shadow)"/>

    <!-- Highlight on S -->
    <path d="M 478 170 Q 450 155 450 185 Q 450 210 478 225"
          stroke="#F5E8D8" stroke-width="8" fill="none" stroke-linecap="round" opacity="0.6"/>
  </g>

  <!-- Text: Chastto -->
  <text x="210" y="210" font-family="Georgia, serif" font-size="72" font-style="italic" fill="#C9A84C" font-weight="300" letter-spacing="2">Chastto</text>

  <!-- Text: Events -->
  <text x="800" y="210" font-family="Georgia, serif" font-size="72" font-style="italic" fill="#C9A84C" font-weight="300" letter-spacing="2">Events</text>

  <!-- Decorative lines -->
  <line x1="120" y1="310" x2="280" y2="310" stroke="#C9A84C" stroke-width="2" opacity="0.6"/>
  <line x1="920" y1="310" x2="1080" y2="310" stroke="#C9A84C" stroke-width="2" opacity="0.6"/>

  <!-- Tagline -->
  <text x="600" y="360" font-family="Arial, sans-serif" font-size="20" fill="#C9A84C" font-weight="400" text-anchor="middle" letter-spacing="4">L'EXCELLENCE À CHAQUE INSTANT</text>
</svg>
